<?xml version="1.0" encoding="UTF-8" standalone="no"?>
<svg xmlns="http://www.w3.org/2000/svg"
     width="1432" height="643" viewBox="0 0 1432 643"
     role="img" aria-label="Auto Pilot logo">
  <title>Auto Pilot Logo</title>
  <path d="M 982 518 L 980 520 L 980 522 L 982 523 L 988 523 L 993 529 L 996 529 L 998 525 L 1006 525 L 1010 527 L 1015 527 L 1017 529 L 1017 532 L 1016 533 L 1016 536 L 1015 537 L 1015 541 L 1014 542 L 1014 553 L 1013 554 L 1013 557 L 1011 561 L 1011 580 L 1012 581 L 1012 585 L 1010 587 L 1010 590 L 1015 596 L 1016 596 L 1019 599 L 1023 600 L 1028 605 L 1030 605 L 1036 602 L 1037 600 L 1037 597 L 1038 596 L 1038 588 L 1037 587 L 1037 584 L 1036 583 L 1037 579 L 1036 578 L 1036 575 L 1035 574 L 1035 567 L 1034 566 L 1035 565 L 1034 563 L 1034 554 L 1033 553 L 1033 547 L 1032 546 L 1032 535 L 1030 532 L 1032 530 L 1036 530 L 1037 531 L 1039 531 L 1040 530 L 1047 530 L 1050 532 L 1071 533 L 1072 532 L 1078 531 L 1082 528 L 1081 526 L 1080 526 L 1076 522 L 1074 522 L 1073 520 L 1071 520 L 1069 518 L 1064 518 L 1063 517 L 1050 517 L 1049 516 L 1035 516 L 1034 517 L 1030 517 L 1029 516 L 1027 516 L 1026 517 L 1025 516 L 1022 516 L 1021 517 L 1015 517 L 1013 515 L 1011 515 L 1010 516 L 1008 515 L 1005 515 L 1004 516 L 991 516 L 987 518 Z M 880 511 L 870 512 L 868 514 L 866 514 L 865 513 L 857 513 L 855 515 L 853 515 L 851 518 L 847 519 L 846 521 L 845 520 L 842 520 L 839 523 L 836 524 L 835 526 L 831 529 L 831 531 L 827 533 L 824 536 L 823 540 L 819 545 L 819 547 L 817 549 L 816 549 L 817 553 L 813 556 L 813 558 L 812 559 L 812 572 L 813 573 L 813 576 L 819 586 L 831 598 L 838 602 L 844 608 L 848 609 L 849 610 L 852 610 L 853 611 L 859 612 L 861 614 L 871 613 L 872 612 L 872 609 L 873 608 L 875 609 L 878 609 L 883 605 L 891 601 L 900 591 L 901 588 L 905 583 L 906 578 L 908 575 L 908 570 L 910 568 L 910 566 L 911 565 L 912 552 L 909 548 L 911 546 L 911 543 L 910 542 L 909 537 L 906 534 L 903 528 L 898 522 L 895 521 L 892 518 L 889 517 L 887 515 L 883 514 Z M 879 523 L 882 526 L 882 527 L 890 534 L 892 538 L 892 546 L 891 547 L 892 550 L 891 552 L 889 553 L 889 555 L 887 559 L 887 562 L 883 567 L 883 569 L 881 570 L 877 578 L 875 579 L 866 588 L 864 588 L 860 591 L 853 591 L 852 590 L 847 589 L 837 580 L 834 574 L 834 570 L 833 569 L 833 562 L 834 561 L 834 558 L 836 555 L 836 552 L 842 542 L 854 529 L 857 528 L 860 525 L 862 525 L 864 523 L 867 523 L 868 522 Z M 879 521 L 880 520 L 882 521 L 881 522 Z M 403 518 L 396 516 L 390 513 L 382 513 L 378 511 L 361 511 L 360 512 L 356 512 L 354 514 L 351 514 L 348 517 L 347 520 L 350 524 L 350 526 L 348 528 L 348 530 L 351 533 L 351 537 L 350 538 L 348 537 L 348 542 L 349 544 L 347 546 L 347 555 L 348 556 L 348 576 L 349 577 L 348 578 L 348 580 L 349 581 L 348 582 L 348 587 L 349 588 L 348 589 L 348 592 L 347 594 L 348 595 L 349 599 L 353 600 L 354 601 L 360 602 L 363 599 L 360 597 L 360 596 L 363 593 L 367 593 L 368 594 L 369 593 L 379 593 L 381 591 L 381 588 L 380 588 L 378 586 L 373 586 L 372 585 L 372 580 L 371 579 L 371 568 L 372 567 L 379 567 L 380 566 L 384 566 L 388 562 L 393 561 L 396 558 L 397 558 L 398 556 L 404 550 L 406 546 L 406 543 L 408 541 L 407 538 L 409 536 L 409 525 Z M 369 554 L 370 553 L 372 553 L 376 555 L 373 557 L 371 557 L 369 555 Z M 391 526 L 394 532 L 393 533 L 393 537 L 388 543 L 386 544 L 383 544 L 382 545 L 378 545 L 377 546 L 371 547 L 370 548 L 368 546 L 368 538 L 367 537 L 367 526 L 368 525 L 379 525 L 380 524 L 381 525 L 389 525 Z M 660 511 L 657 514 L 656 518 L 654 520 L 652 520 L 652 522 L 654 524 L 654 528 L 653 529 L 653 532 L 652 533 L 652 536 L 651 537 L 651 540 L 652 542 L 649 546 L 649 552 L 648 553 L 648 556 L 649 556 L 650 558 L 645 564 L 645 569 L 643 573 L 643 584 L 642 585 L 643 586 L 643 588 L 655 597 L 658 597 L 659 596 L 665 596 L 666 595 L 668 595 L 669 596 L 675 596 L 676 595 L 678 596 L 694 596 L 695 595 L 697 595 L 698 596 L 708 596 L 709 595 L 714 596 L 715 595 L 719 595 L 720 594 L 721 595 L 723 595 L 724 594 L 729 594 L 733 592 L 735 590 L 735 587 L 729 584 L 727 582 L 726 578 L 725 577 L 722 577 L 721 578 L 717 578 L 716 577 L 714 577 L 713 578 L 708 578 L 707 579 L 702 578 L 701 579 L 698 579 L 697 580 L 686 580 L 685 581 L 680 581 L 679 582 L 678 581 L 675 581 L 672 583 L 668 583 L 667 584 L 664 584 L 663 583 L 663 580 L 664 579 L 664 570 L 665 569 L 665 563 L 666 562 L 666 551 L 667 550 L 667 544 L 665 542 L 665 541 L 669 535 L 669 530 L 670 529 L 669 525 L 672 523 L 677 523 L 679 521 L 679 519 L 678 518 L 672 518 L 671 517 L 671 515 L 664 510 Z M 565 519 L 557 513 L 555 513 L 552 510 L 542 511 L 540 514 L 538 514 L 537 513 L 530 513 L 529 514 L 527 513 L 524 513 L 520 515 L 516 513 L 514 514 L 513 513 L 512 514 L 509 514 L 508 513 L 507 514 L 502 514 L 498 517 L 496 517 L 494 515 L 491 515 L 490 516 L 486 516 L 485 517 L 481 518 L 481 519 L 479 520 L 478 522 L 480 524 L 486 527 L 489 530 L 489 531 L 491 531 L 493 527 L 497 527 L 498 526 L 503 526 L 504 525 L 507 525 L 510 527 L 510 529 L 509 530 L 509 543 L 508 544 L 508 555 L 509 556 L 509 558 L 507 561 L 507 565 L 506 566 L 506 569 L 507 570 L 507 576 L 504 581 L 500 581 L 499 582 L 500 583 L 499 584 L 490 582 L 488 586 L 476 586 L 476 588 L 478 590 L 481 590 L 482 592 L 484 593 L 491 593 L 492 594 L 504 594 L 505 593 L 507 594 L 508 593 L 510 593 L 511 594 L 517 594 L 518 593 L 537 593 L 538 592 L 548 592 L 550 591 L 554 587 L 554 586 L 549 583 L 547 583 L 544 579 L 540 577 L 537 577 L 536 578 L 532 578 L 531 577 L 524 577 L 523 578 L 521 576 L 522 574 L 522 572 L 521 571 L 522 565 L 520 563 L 520 561 L 522 558 L 522 552 L 521 550 L 522 549 L 522 543 L 523 541 L 521 539 L 521 536 L 522 535 L 522 530 L 520 527 L 522 525 L 524 525 L 525 526 L 528 526 L 529 525 L 530 526 L 547 526 L 549 529 L 549 531 L 550 532 L 552 532 L 553 531 L 553 526 L 556 524 L 562 523 L 565 520 Z M 1047 292 L 1041 298 L 1041 299 L 1039 300 L 1038 303 L 1035 306 L 1035 308 L 1028 322 L 1028 326 L 1027 327 L 1027 331 L 1026 332 L 1026 343 L 1025 344 L 1025 350 L 1026 351 L 1025 352 L 1026 353 L 1026 357 L 1027 358 L 1027 361 L 1028 362 L 1029 373 L 1030 374 L 1030 376 L 1033 380 L 1033 383 L 1040 397 L 1042 399 L 1048 409 L 1056 418 L 1056 419 L 1060 423 L 1060 424 L 1062 426 L 1063 426 L 1064 428 L 1073 437 L 1074 437 L 1080 443 L 1081 443 L 1095 455 L 1096 455 L 1101 459 L 1104 460 L 1109 464 L 1114 466 L 1116 468 L 1127 473 L 1129 475 L 1132 475 L 1137 478 L 1139 478 L 1142 480 L 1144 480 L 1150 483 L 1153 483 L 1154 484 L 1157 484 L 1158 485 L 1161 485 L 1162 486 L 1164 485 L 1167 487 L 1180 488 L 1181 489 L 1183 488 L 1184 489 L 1185 488 L 1186 489 L 1193 489 L 1194 488 L 1204 487 L 1205 486 L 1213 485 L 1214 484 L 1216 484 L 1223 481 L 1226 481 L 1227 480 L 1235 478 L 1239 475 L 1241 475 L 1243 473 L 1247 471 L 1251 467 L 1251 466 L 1253 465 L 1254 463 L 1256 462 L 1256 461 L 1258 460 L 1258 459 L 1260 457 L 1261 457 L 1270 447 L 1274 440 L 1277 437 L 1278 434 L 1283 428 L 1296 402 L 1296 400 L 1299 396 L 1299 393 L 1302 387 L 1303 379 L 1305 377 L 1305 375 L 1306 374 L 1305 373 L 1306 372 L 1307 364 L 1308 363 L 1307 361 L 1307 358 L 1308 357 L 1308 350 L 1309 349 L 1309 330 L 1308 329 L 1308 323 L 1307 322 L 1307 313 L 1306 312 L 1306 307 L 1305 306 L 1305 303 L 1304 302 L 1305 301 L 1305 296 L 1303 292 L 1298 287 L 1296 283 L 1295 283 L 1293 281 L 1290 281 L 1286 279 L 1276 279 L 1275 278 L 1257 278 L 1256 279 L 1254 278 L 1244 278 L 1243 279 L 1241 278 L 1230 278 L 1229 279 L 1228 278 L 1220 278 L 1219 279 L 1215 279 L 1214 278 L 1209 278 L 1208 279 L 1207 278 L 1191 278 L 1190 279 L 1150 279 L 1149 280 L 1107 281 L 1106 282 L 1096 282 L 1095 283 L 1084 283 L 1083 284 L 1077 284 L 1076 285 L 1070 285 L 1069 286 L 1066 286 L 1065 287 L 1061 287 L 1060 288 L 1057 288 L 1054 290 L 1050 290 L 1048 292 Z M 1226 317 L 1232 323 L 1232 325 L 1234 329 L 1234 334 L 1235 335 L 1235 340 L 1236 341 L 1235 358 L 1234 359 L 1233 367 L 1232 368 L 1232 370 L 1231 371 L 1231 373 L 1229 376 L 1228 380 L 1226 382 L 1223 388 L 1218 393 L 1218 394 L 1210 401 L 1200 407 L 1198 407 L 1191 410 L 1187 410 L 1186 411 L 1179 411 L 1178 412 L 1177 411 L 1164 410 L 1161 408 L 1158 408 L 1152 405 L 1150 403 L 1147 402 L 1142 397 L 1141 397 L 1131 386 L 1131 385 L 1129 383 L 1129 381 L 1127 379 L 1124 373 L 1124 371 L 1121 364 L 1121 361 L 1120 360 L 1120 355 L 1119 354 L 1119 340 L 1120 339 L 1120 337 L 1123 332 L 1123 330 L 1130 324 L 1132 324 L 1138 321 L 1152 320 L 1153 319 L 1162 319 L 1163 318 L 1172 318 L 1173 317 L 1181 317 L 1182 316 L 1214 316 L 1215 317 Z M 429 299 L 423 287 L 414 278 L 412 277 L 393 277 L 392 278 L 309 278 L 308 279 L 304 278 L 303 279 L 262 279 L 261 280 L 259 279 L 258 280 L 214 280 L 213 281 L 209 280 L 208 281 L 178 281 L 175 283 L 172 283 L 170 284 L 162 292 L 156 302 L 149 311 L 149 313 L 146 318 L 146 320 L 144 324 L 143 336 L 142 337 L 142 340 L 143 341 L 142 343 L 142 347 L 143 348 L 144 365 L 145 366 L 146 371 L 148 373 L 148 375 L 152 383 L 159 393 L 166 407 L 171 413 L 171 414 L 176 419 L 187 436 L 201 451 L 201 452 L 206 457 L 208 461 L 215 468 L 216 468 L 223 474 L 224 474 L 225 476 L 226 476 L 231 481 L 239 485 L 241 485 L 244 487 L 250 487 L 251 488 L 255 488 L 256 489 L 262 489 L 263 490 L 274 491 L 275 492 L 285 493 L 286 494 L 325 494 L 326 493 L 336 492 L 337 491 L 344 491 L 353 487 L 360 481 L 365 478 L 381 461 L 384 456 L 388 452 L 391 446 L 394 443 L 395 440 L 400 433 L 404 424 L 406 422 L 408 418 L 408 416 L 411 411 L 411 409 L 417 398 L 417 395 L 420 389 L 420 385 L 422 383 L 423 377 L 424 376 L 424 373 L 426 370 L 426 366 L 428 362 L 428 358 L 429 357 L 429 354 L 430 353 L 430 347 L 431 346 L 431 309 L 430 308 Z M 338 315 L 346 323 L 347 327 L 349 330 L 349 359 L 348 360 L 347 368 L 344 374 L 344 376 L 335 391 L 323 403 L 322 403 L 314 409 L 312 409 L 307 412 L 301 413 L 300 414 L 297 414 L 296 415 L 289 415 L 287 416 L 286 415 L 278 415 L 277 414 L 274 414 L 257 404 L 249 395 L 248 392 L 241 382 L 241 379 L 240 378 L 240 362 L 242 358 L 243 352 L 251 337 L 253 336 L 253 335 L 261 327 L 262 327 L 266 323 L 272 320 L 274 318 L 278 318 L 279 317 L 282 317 L 283 316 L 284 317 L 286 317 L 287 316 L 308 316 L 309 315 L 311 316 L 312 315 L 324 315 L 325 314 L 336 314 Z M 429 46 L 427 44 L 424 44 L 423 45 L 422 44 L 421 45 L 414 45 L 413 46 L 408 46 L 407 47 L 397 47 L 396 48 L 392 48 L 391 49 L 388 49 L 387 50 L 384 50 L 383 51 L 379 51 L 378 52 L 374 52 L 373 53 L 364 54 L 363 55 L 357 56 L 349 60 L 344 60 L 343 61 L 337 62 L 334 64 L 332 64 L 326 67 L 324 67 L 319 70 L 316 70 L 313 72 L 306 74 L 301 77 L 299 77 L 296 79 L 291 80 L 282 85 L 280 85 L 278 87 L 267 92 L 261 97 L 257 98 L 255 100 L 250 102 L 245 106 L 243 106 L 233 111 L 222 119 L 220 119 L 215 123 L 212 124 L 205 129 L 200 131 L 197 134 L 194 135 L 181 144 L 174 147 L 172 149 L 168 150 L 166 152 L 161 154 L 159 156 L 141 165 L 138 168 L 130 169 L 129 170 L 125 170 L 124 171 L 119 171 L 115 173 L 105 173 L 104 174 L 100 174 L 99 175 L 93 175 L 92 176 L 89 176 L 88 177 L 87 176 L 86 177 L 82 177 L 81 178 L 74 178 L 73 179 L 68 179 L 67 180 L 61 180 L 57 182 L 54 182 L 53 183 L 48 184 L 47 186 L 48 187 L 49 191 L 53 196 L 54 200 L 56 202 L 57 205 L 59 207 L 62 213 L 69 223 L 65 230 L 60 235 L 58 239 L 52 245 L 52 246 L 45 253 L 45 254 L 42 257 L 41 260 L 31 273 L 31 281 L 32 282 L 32 284 L 31 285 L 32 286 L 32 298 L 33 299 L 32 300 L 32 306 L 31 307 L 32 317 L 31 318 L 31 323 L 30 324 L 30 339 L 29 340 L 30 342 L 29 343 L 29 352 L 28 353 L 28 357 L 29 358 L 28 359 L 29 360 L 30 364 L 33 367 L 35 372 L 37 373 L 40 376 L 40 377 L 46 382 L 46 383 L 50 387 L 50 388 L 51 388 L 55 392 L 58 393 L 66 399 L 72 402 L 77 403 L 82 406 L 87 406 L 90 408 L 114 409 L 115 410 L 129 410 L 130 411 L 134 411 L 135 410 L 144 410 L 144 408 L 146 407 L 147 405 L 146 404 L 146 402 L 141 397 L 139 393 L 131 384 L 131 382 L 129 378 L 129 375 L 128 374 L 127 365 L 126 364 L 126 361 L 127 360 L 126 341 L 127 340 L 127 331 L 128 330 L 127 329 L 128 328 L 129 320 L 130 319 L 131 314 L 133 311 L 133 309 L 137 301 L 139 299 L 140 296 L 147 288 L 147 287 L 151 282 L 154 281 L 156 279 L 166 273 L 172 272 L 173 271 L 176 271 L 177 270 L 181 270 L 182 269 L 193 268 L 194 267 L 195 268 L 196 267 L 204 267 L 205 266 L 206 267 L 208 267 L 209 266 L 219 266 L 220 265 L 221 266 L 222 265 L 227 265 L 230 263 L 231 257 L 234 251 L 234 248 L 236 245 L 236 243 L 239 238 L 239 236 L 241 233 L 243 226 L 245 224 L 245 222 L 247 220 L 259 220 L 260 219 L 288 219 L 289 218 L 292 218 L 293 219 L 294 218 L 312 218 L 313 217 L 318 217 L 319 218 L 322 218 L 325 222 L 325 225 L 324 226 L 324 229 L 323 230 L 324 231 L 323 232 L 323 237 L 322 238 L 322 245 L 321 246 L 321 249 L 320 250 L 320 256 L 319 257 L 319 262 L 318 263 L 318 269 L 330 269 L 331 270 L 332 269 L 336 269 L 337 268 L 338 269 L 340 269 L 341 268 L 347 268 L 348 269 L 349 268 L 371 268 L 372 267 L 374 268 L 382 268 L 383 267 L 384 268 L 387 268 L 388 267 L 409 267 L 410 266 L 412 267 L 413 266 L 426 266 L 427 267 L 428 266 L 431 266 L 433 265 L 433 253 L 432 252 L 432 244 L 433 243 L 432 242 L 432 233 L 433 232 L 433 229 L 432 228 L 432 143 L 431 142 L 431 139 L 432 138 L 432 134 L 431 133 L 432 131 L 432 126 L 431 125 L 431 118 L 432 117 L 432 115 L 431 114 L 432 112 L 432 110 L 431 109 L 431 53 L 429 49 Z M 327 108 L 328 109 L 327 110 L 326 125 L 325 126 L 325 131 L 324 132 L 324 140 L 323 141 L 323 147 L 322 148 L 322 154 L 321 155 L 321 165 L 320 166 L 320 170 L 319 171 L 319 176 L 317 178 L 315 178 L 314 179 L 311 179 L 310 178 L 307 178 L 306 179 L 305 178 L 274 178 L 273 177 L 260 177 L 259 176 L 259 173 L 261 171 L 262 166 L 265 161 L 265 159 L 267 157 L 268 152 L 275 138 L 275 136 L 278 131 L 279 126 L 282 121 L 282 119 L 286 112 L 307 111 L 308 110 L 309 111 L 310 110 L 316 110 L 317 109 L 324 109 L 325 108 Z M 769 39 L 768 41 L 769 42 L 768 43 L 768 63 L 767 64 L 768 65 L 768 67 L 767 68 L 767 70 L 768 71 L 768 79 L 767 80 L 767 83 L 768 84 L 768 88 L 767 89 L 768 90 L 768 102 L 767 104 L 768 106 L 767 107 L 767 136 L 766 137 L 766 159 L 765 160 L 765 193 L 764 194 L 764 246 L 763 247 L 764 249 L 763 251 L 764 253 L 763 254 L 763 257 L 764 258 L 763 260 L 763 263 L 764 264 L 763 265 L 763 273 L 762 274 L 762 276 L 764 277 L 780 277 L 783 279 L 786 279 L 787 280 L 811 281 L 812 282 L 822 282 L 823 283 L 836 283 L 837 284 L 846 284 L 847 285 L 866 285 L 867 286 L 876 286 L 877 287 L 894 287 L 895 288 L 905 289 L 909 292 L 910 295 L 909 296 L 908 301 L 904 308 L 904 312 L 902 314 L 899 325 L 897 328 L 895 336 L 893 339 L 893 342 L 890 348 L 890 352 L 887 356 L 887 359 L 885 362 L 885 365 L 883 368 L 883 371 L 879 379 L 879 381 L 876 388 L 876 391 L 874 394 L 873 399 L 870 404 L 869 414 L 874 418 L 876 418 L 877 419 L 882 419 L 883 418 L 888 418 L 889 419 L 890 418 L 970 418 L 971 419 L 1012 419 L 1013 420 L 1017 420 L 1018 419 L 1021 419 L 1025 417 L 1028 414 L 1028 410 L 1021 402 L 1021 401 L 1017 396 L 1017 394 L 1013 386 L 1012 381 L 1007 371 L 1007 368 L 1005 365 L 1005 361 L 1003 357 L 1003 351 L 1002 350 L 1002 345 L 1001 344 L 1001 326 L 1002 325 L 1002 317 L 1003 316 L 1003 313 L 1008 303 L 1010 301 L 1010 300 L 1012 298 L 1013 298 L 1012 297 L 1015 294 L 1016 294 L 1016 293 L 1022 287 L 1022 286 L 1024 285 L 1025 283 L 1027 282 L 1034 275 L 1036 275 L 1039 272 L 1041 272 L 1048 268 L 1050 268 L 1053 266 L 1058 265 L 1061 263 L 1064 263 L 1065 262 L 1070 262 L 1071 261 L 1072 262 L 1073 261 L 1076 261 L 1077 260 L 1097 259 L 1098 258 L 1099 259 L 1100 258 L 1101 259 L 1102 258 L 1115 258 L 1116 257 L 1118 258 L 1123 258 L 1124 257 L 1142 257 L 1143 256 L 1173 256 L 1174 255 L 1175 256 L 1192 256 L 1193 257 L 1194 256 L 1201 256 L 1202 257 L 1206 256 L 1207 257 L 1215 257 L 1216 258 L 1236 258 L 1237 259 L 1240 259 L 1241 260 L 1248 260 L 1249 261 L 1260 261 L 1261 262 L 1276 263 L 1279 265 L 1285 266 L 1288 268 L 1293 269 L 1295 271 L 1299 273 L 1300 275 L 1305 278 L 1308 284 L 1313 290 L 1313 292 L 1315 294 L 1317 298 L 1317 301 L 1318 302 L 1318 308 L 1317 309 L 1318 308 L 1320 312 L 1321 349 L 1322 350 L 1322 354 L 1323 356 L 1328 361 L 1332 363 L 1334 363 L 1338 365 L 1348 366 L 1349 367 L 1360 368 L 1361 367 L 1363 367 L 1368 363 L 1370 356 L 1371 355 L 1371 351 L 1372 350 L 1371 349 L 1373 345 L 1374 330 L 1375 329 L 1375 325 L 1374 324 L 1375 322 L 1375 291 L 1374 290 L 1374 286 L 1373 285 L 1373 279 L 1372 278 L 1372 275 L 1371 274 L 1370 268 L 1369 267 L 1369 263 L 1368 262 L 1368 257 L 1367 256 L 1367 253 L 1371 251 L 1378 250 L 1385 247 L 1388 247 L 1389 246 L 1392 246 L 1393 245 L 1396 245 L 1397 244 L 1400 244 L 1403 242 L 1403 234 L 1394 216 L 1386 207 L 1383 202 L 1377 196 L 1377 195 L 1375 195 L 1372 191 L 1369 190 L 1367 188 L 1363 187 L 1360 185 L 1357 185 L 1355 183 L 1353 182 L 1350 182 L 1346 179 L 1342 179 L 1340 177 L 1336 175 L 1334 175 L 1331 173 L 1329 173 L 1324 170 L 1321 170 L 1316 167 L 1313 167 L 1309 165 L 1305 165 L 1301 163 L 1298 163 L 1288 158 L 1287 159 L 1286 158 L 1280 157 L 1273 154 L 1265 153 L 1263 151 L 1258 151 L 1256 149 L 1243 148 L 1239 146 L 1234 146 L 1233 145 L 1232 146 L 1228 144 L 1222 144 L 1221 143 L 1217 143 L 1216 142 L 1212 142 L 1211 141 L 1206 141 L 1205 140 L 1200 140 L 1199 139 L 1197 139 L 1196 140 L 1192 138 L 1186 138 L 1185 137 L 1177 137 L 1176 136 L 1170 136 L 1169 135 L 1167 136 L 1166 135 L 1161 135 L 1160 134 L 1159 135 L 1156 135 L 1155 134 L 1147 134 L 1146 133 L 1139 133 L 1138 132 L 1128 132 L 1127 131 L 1116 131 L 1115 130 L 1114 131 L 1110 131 L 1109 130 L 1092 130 L 1091 129 L 1090 130 L 1088 130 L 1087 129 L 1086 130 L 1084 130 L 1083 129 L 1074 129 L 1073 128 L 1035 128 L 1034 129 L 1032 129 L 1031 128 L 1027 128 L 1026 129 L 1025 128 L 1000 128 L 999 129 L 986 129 L 985 128 L 983 128 L 982 129 L 973 129 L 972 128 L 967 128 L 966 127 L 958 126 L 955 124 L 951 124 L 950 123 L 947 123 L 946 122 L 943 122 L 942 121 L 938 121 L 937 120 L 928 119 L 925 117 L 923 117 L 916 114 L 913 114 L 905 110 L 903 110 L 902 109 L 897 108 L 894 106 L 889 105 L 884 102 L 881 102 L 876 99 L 871 98 L 869 96 L 867 96 L 862 93 L 860 93 L 850 87 L 848 87 L 845 84 L 840 82 L 835 78 L 827 74 L 818 67 L 810 63 L 807 60 L 792 52 L 791 50 L 790 50 L 779 41 L 777 41 L 775 39 L 773 39 L 772 38 L 771 39 Z M 740 46 L 738 46 L 737 45 L 733 45 L 732 44 L 728 44 L 727 43 L 717 42 L 716 41 L 713 41 L 712 40 L 709 40 L 708 39 L 698 38 L 697 37 L 696 38 L 695 37 L 691 37 L 690 36 L 684 36 L 683 35 L 669 34 L 668 33 L 664 33 L 663 32 L 659 32 L 658 31 L 653 31 L 652 30 L 646 30 L 645 29 L 628 28 L 627 30 L 627 36 L 626 37 L 626 49 L 625 50 L 626 51 L 625 52 L 624 78 L 623 79 L 623 88 L 622 89 L 622 102 L 621 103 L 621 108 L 620 109 L 620 121 L 619 122 L 619 126 L 618 127 L 618 140 L 617 141 L 617 146 L 616 147 L 615 171 L 614 172 L 614 178 L 613 179 L 613 190 L 612 191 L 612 199 L 611 200 L 611 212 L 610 213 L 610 223 L 609 224 L 609 232 L 608 233 L 608 244 L 607 245 L 608 247 L 607 248 L 607 255 L 606 256 L 605 279 L 604 280 L 604 286 L 603 287 L 603 296 L 602 297 L 602 304 L 603 305 L 603 307 L 599 310 L 587 310 L 586 311 L 570 311 L 569 310 L 567 310 L 565 308 L 565 267 L 566 266 L 566 175 L 567 174 L 566 170 L 567 169 L 567 115 L 568 114 L 567 113 L 567 106 L 568 105 L 568 103 L 567 102 L 567 96 L 568 95 L 568 93 L 567 92 L 567 90 L 568 89 L 568 86 L 567 85 L 568 83 L 567 81 L 568 80 L 568 73 L 567 72 L 567 69 L 568 68 L 567 67 L 567 34 L 566 32 L 565 33 L 503 33 L 502 32 L 501 33 L 489 33 L 488 32 L 487 33 L 480 33 L 479 32 L 477 33 L 476 32 L 460 33 L 458 32 L 458 38 L 457 39 L 457 59 L 456 60 L 456 78 L 457 79 L 456 81 L 457 83 L 457 138 L 458 139 L 458 141 L 457 142 L 457 148 L 458 149 L 457 151 L 457 154 L 458 155 L 458 159 L 457 160 L 457 237 L 458 238 L 457 240 L 457 258 L 458 259 L 457 260 L 457 278 L 458 279 L 458 282 L 457 283 L 457 285 L 458 286 L 457 287 L 457 289 L 458 290 L 458 292 L 457 293 L 457 302 L 458 303 L 458 335 L 457 336 L 458 337 L 458 356 L 457 357 L 458 358 L 458 380 L 459 381 L 460 387 L 462 391 L 464 393 L 464 395 L 466 397 L 468 401 L 475 408 L 477 408 L 480 410 L 483 410 L 487 412 L 499 414 L 500 415 L 504 415 L 505 416 L 509 416 L 510 417 L 525 418 L 526 419 L 540 419 L 541 420 L 544 420 L 545 419 L 546 420 L 548 420 L 549 419 L 552 419 L 553 420 L 560 420 L 561 419 L 563 419 L 564 420 L 569 420 L 570 419 L 573 419 L 574 420 L 575 419 L 593 419 L 594 418 L 595 419 L 596 418 L 612 418 L 613 417 L 614 418 L 617 418 L 618 417 L 667 417 L 668 416 L 683 416 L 684 415 L 690 416 L 691 415 L 697 415 L 698 414 L 705 414 L 706 413 L 710 413 L 720 407 L 720 406 L 723 403 L 731 386 L 731 383 L 732 382 L 732 377 L 733 376 L 733 368 L 734 367 L 734 342 L 735 341 L 734 339 L 734 330 L 735 329 L 735 300 L 736 299 L 736 296 L 735 295 L 736 294 L 736 262 L 737 261 L 737 219 L 738 218 L 737 214 L 738 213 L 738 192 L 739 191 L 738 187 L 739 186 L 739 144 L 740 143 L 740 138 L 739 137 L 739 110 L 740 109 L 739 108 L 739 106 L 740 105 L 739 103 L 740 102 L 740 97 L 739 95 L 740 94 L 740 83 L 741 82 L 740 80 L 740 78 L 741 77 L 741 74 L 740 73 L 741 72 L 741 69 L 740 68 L 740 66 L 741 65 L 741 47 Z" fill="#000000" fill-rule="evenodd"/>
</svg>
